<svg width="37" height="37" viewBox="0 0 37 37" fill="none" xmlns="http://www.w3.org/2000/svg">
<path d="M14.7199 23.2077C14.9007 22.855 15.1778 22.5607 15.519 22.359C15.8602 22.1572 16.2516 22.0563 16.6478 22.0679H22.6742C23.1121 22.0762 23.5496 22.0335 23.9777 21.9406C24.1755 21.8957 24.359 21.8019 24.5112 21.6678C24.6389 21.5215 24.7248 21.3435 24.7597 21.1524C24.8424 20.7291 24.881 20.2984 24.8749 19.8671V17.3269C24.8824 16.8915 24.8438 16.4567 24.7597 16.0295C24.7221 15.8411 24.6365 15.6657 24.5112 15.5202C24.3583 15.3882 24.1749 15.2965 23.9777 15.2534C23.5501 15.1571 23.1123 15.1144 22.6742 15.1261H12.1251C11.9337 15.1261 11.7502 15.2021 11.6149 15.3374C11.4796 15.4727 11.4036 15.6562 11.4036 15.8476V26.4634C11.4036 26.6997 11.3097 26.9264 11.1426 27.0936C10.9754 27.2607 10.7488 27.3546 10.5124 27.3546H6.50494C6.26857 27.3546 6.04189 27.2607 5.87475 27.0936C5.70761 26.9264 5.61372 26.6997 5.61372 26.4634V1.10913C4.31313 1.36731 3.14236 2.06861 2.30102 3.09348C1.45969 4.11834 0.999879 5.40329 1 6.72926V30.2707C1 31.7902 1.60362 33.2475 2.67806 34.3219C3.7525 35.3964 5.20976 36 6.72926 36H25.5903L15.114 25.4388C14.8244 25.1541 14.6308 24.7862 14.5602 24.3862C14.4895 23.9863 14.5454 23.5744 14.7199 23.2077V23.2077Z" fill="#26B696" stroke="black" stroke-width="0.3"/>
<path d="M30.2707 1H11.4036V9.17859C11.4035 9.26082 11.4201 9.34222 11.4524 9.41782C11.4848 9.49343 11.5322 9.56166 11.5917 9.61837C11.6513 9.67508 11.7217 9.71909 11.7988 9.74771C11.8759 9.77633 11.958 9.78897 12.0401 9.78486H23.0743C24.2333 9.76621 25.3908 9.88012 26.524 10.1244C27.4458 10.316 28.3059 10.7325 29.0278 11.3369C29.6906 11.9355 30.1753 12.7055 30.4283 13.5619C30.7016 14.5114 30.8324 15.4962 30.8163 16.4842V20.5947C30.8324 21.5826 30.7016 22.5674 30.4283 23.5169C30.1742 24.3712 29.6897 25.1389 29.0278 25.7358C28.3087 26.3471 27.4513 26.7737 26.53 26.9787C26.0462 27.0816 25.556 27.1525 25.0628 27.1909L33.0474 35.2785C33.9428 34.7846 34.6892 34.0593 35.2086 33.1784C35.7279 32.2975 36.0012 31.2933 36 30.2707V6.72926C36 5.20976 35.3963 3.7525 34.3219 2.67806C33.2475 1.60362 31.7902 1 30.2707 1V1Z" fill="#26B696" stroke="black" stroke-width="0.3"/>
</svg>
